<?xml version="1.0" standalone="no"?>
<!DOCTYPE svg PUBLIC "-//W3C//DTD SVG 20010904//EN"
 "http://www.w3.org/TR/2001/REC-SVG-20010904/DTD/svg10.dtd">
<svg version="1.0" xmlns="http://www.w3.org/2000/svg"
 width="300.000000pt" height="300.000000pt" viewBox="0 0 300.000000 300.000000"
 preserveAspectRatio="xMidYMid meet">
<metadata>
Created by potrace 1.10, written by Peter Selinger 2001-2011
</metadata>
<g transform="translate(0.000000,300.000000) scale(0.100000,-0.100000)"
fill="#000000" stroke="none">
<path d="M2375 2828 c-205 -26 -282 -51 -356 -116 l-35 -31 -21 49 c-26 61
-46 70 -156 70 -78 0 -135 -8 -365 -51 -95 -18 -185 -50 -197 -69 -5 -8 -27
-105 -70 -302 l-16 -77 -53 -27 c-28 -14 -76 -43 -106 -63 -97 -64 -74 -101
62 -104 61 -2 68 -4 68 -23 0 -11 -22 -41 -50 -68 -71 -68 -84 -97 -85 -182 0
-59 4 -76 25 -106 13 -20 37 -44 52 -53 l28 -16 0 40 c0 49 11 56 108 71 61
10 76 9 106 -5 40 -19 66 -66 66 -120 0 -126 -97 -230 -345 -370 -65 -37 -91
-57 -93 -73 -4 -29 0 -28 77 14 66 37 68 29 7 -29 -28 -26 -29 -28 -11 -41 16
-12 22 -9 53 33 68 90 90 113 143 152 30 22 62 50 71 62 13 17 18 18 18 7 0
-9 -4 -20 -9 -25 -5 -6 -18 -37 -31 -70 -18 -50 -22 -89 -27 -241 -7 -203 -11
-185 78 -297 75 -94 74 -148 -5 -197 -66 -40 -99 -19 -234 148 -41 50 -76 92
-78 92 -16 0 50 -97 104 -153 36 -37 62 -67 59 -67 -4 0 -39 26 -77 57 -68 55
-72 61 -95 136 -20 63 -36 91 -85 148 -44 51 -60 77 -60 99 0 38 -16 38 -78 0
-27 -16 -54 -30 -61 -30 -6 0 -11 -4 -11 -9 0 -6 12 -6 30 0 17 5 44 13 61 18
27 9 31 7 40 -17 5 -15 14 -36 21 -47 48 -81 74 -124 90 -148 28 -41 16 -44
-24 -5 -34 32 -169 140 -236 189 l-33 23 76 38 c68 35 74 40 63 57 -11 18 -14
18 -82 -13 -39 -18 -88 -42 -110 -53 l-38 -20 267 -209 c147 -115 313 -245
369 -288 259 -205 371 -284 387 -275 9 4 108 77 220 160 275 206 788 578 982
712 86 61 156 111 155 112 -2 2 -83 33 -181 70 -295 110 -334 130 -403 205
-60 65 -81 92 -122 161 l-21 35 70 -23 c39 -13 75 -23 79 -21 13 5 -63 128
-105 171 -40 41 -35 43 45 22 30 -8 58 -15 62 -15 13 0 -64 103 -118 157 l-52
52 62 3 61 3 -89 92 c-74 78 -85 94 -70 99 181 56 269 123 219 164 -21 18
-130 39 -200 40 l-60 0 -27 60 -26 60 59 27 c38 18 54 30 46 35 -7 4 4 8 26 8
23 0 36 4 32 10 -3 6 4 10 16 10 31 0 115 59 177 123 50 54 60 69 45 65 -5 0
-39 -5 -78 -10z m-25 -68 c-7 -5 -43 -16 -79 -25 -81 -20 -232 -93 -286 -139
-45 -38 -43 -56 4 -32 38 20 43 20 40 -1 -1 -10 3 -36 9 -58 17 -59 16 -63
-25 -68 -32 -3 -30 -4 13 -5 38 -2 54 -6 58 -18 5 -14 17 -16 65 -11 96 8 178
-14 168 -46 -4 -13 -107 -64 -163 -81 -12 -4 -29 -15 -39 -26 -22 -25 -31 -25
-61 -1 -22 17 -36 19 -119 14 -54 -3 -95 -2 -95 3 0 5 28 9 62 8 l63 -1 -55 6
-55 5 60 6 c53 5 57 7 35 16 l-24 11 34 11 c19 5 76 17 125 26 50 9 110 20
135 25 l45 9 -50 1 c-125 2 -288 -35 -665 -152 -168 -52 -303 -83 -411 -92
-81 -8 -163 1 -154 16 3 4 49 33 103 63 85 48 111 57 212 76 63 11 203 39 310
62 107 22 231 47 275 54 l80 14 -85 -6 c-47 -3 -179 -21 -294 -39 -147 -24
-214 -31 -227 -24 -17 8 -70 2 -131 -17 -10 -3 -18 -1 -18 4 0 6 32 16 70 22
48 8 70 16 70 26 0 8 15 20 33 28 45 20 11 20 -71 0 -71 -18 -114 -41 -52 -29
19 3 43 9 54 12 11 3 16 1 12 -5 -3 -5 -23 -13 -43 -16 -21 -4 -45 -9 -54 -12
-13 -3 -15 1 -12 19 4 21 16 26 108 47 57 12 122 23 144 24 22 0 35 4 29 7 -6
4 12 10 40 14 28 4 56 3 63 -1 7 -4 9 -3 6 3 -4 6 44 19 126 33 72 12 143 27
157 33 14 6 29 11 35 11 5 1 24 17 42 37 43 48 194 123 303 153 83 22 109 24
80 6z m-458 -2 c8 -7 23 -33 32 -58 17 -45 17 -46 -9 -91 -24 -44 -28 -47 -80
-53 -62 -7 -401 -71 -456 -86 -20 -6 -48 -10 -62 -10 -25 0 -25 1 -11 28 7 15
14 42 14 60 0 49 15 70 59 82 32 8 49 6 111 -15 40 -14 83 -25 94 -25 19 1 19
2 -4 15 -14 7 -53 23 -88 34 -56 19 -68 20 -127 9 -58 -11 -66 -16 -75 -42 -5
-16 -10 -38 -9 -50 1 -12 6 -1 11 22 5 24 12 42 14 39 4 -4 -24 -159 -29 -163
-1 -1 -12 -5 -24 -8 -28 -9 -28 -8 -3 114 15 72 25 99 42 112 28 22 39 23 32
3 -8 -21 0 -20 128 19 226 69 402 94 440 64z m242 -24 c-32 -19 -74 -47 -91
-60 -18 -14 -33 -21 -33 -16 0 20 140 112 169 112 8 0 -12 -16 -45 -36z m-819
-399 c-63 -19 -115 -27 -115 -17 0 6 26 14 58 20 79 13 104 12 57 -3z m722
-84 c6 0 9 -10 6 -20 -4 -15 3 -22 31 -31 33 -10 41 -19 34 -36 -2 -3 11 -12
27 -19 17 -8 46 -28 65 -45 l34 -30 -39 0 c-22 0 -71 7 -110 15 -38 8 -83 15
-100 14 -23 -1 -16 -5 34 -21 64 -20 83 -36 21 -18 -19 5 -36 8 -38 5 -2 -2
22 -11 54 -21 68 -19 121 -53 184 -118 29 -31 39 -46 28 -46 -9 0 -90 24 -180
54 -89 30 -179 57 -198 61 -37 6 -40 8 130 -65 106 -46 172 -93 222 -159 27
-35 47 -65 45 -68 -8 -7 -130 46 -177 77 -51 34 -50 36 8 16 23 -8 44 -11 46
-7 3 4 -27 16 -66 25 -39 9 -116 39 -172 66 -56 26 -110 50 -121 53 -17 4 -16
5 5 7 24 2 24 3 -5 10 -16 4 -43 8 -60 8 -29 -1 -29 -1 5 -9 37 -8 9 -7 -124
8 -40 4 -57 3 -53 -4 4 -6 -1 -14 -11 -18 -31 -12 -203 -45 -235 -45 -38 0
-90 39 -123 92 -14 22 -34 43 -45 45 -23 6 -25 19 -3 27 37 14 59 4 113 -55
53 -56 61 -61 107 -65 l49 -4 -46 15 c-44 14 -55 24 -129 113 -12 14 -30 22
-49 22 -17 0 -31 4 -31 10 0 11 65 24 79 16 5 -4 12 -2 16 3 3 5 13 10 23 9
22 0 204 54 257 77 74 31 255 60 372 59 59 -1 113 -2 120 -3z m-878 -248 c0
-5 -19 -22 -42 -38 -56 -40 -89 -105 -85 -167 2 -25 0 -44 -4 -41 -14 8 -8
113 8 151 20 50 72 102 101 102 13 0 23 -3 22 -7z m74 -75 c12 -10 16 -18 9
-18 -17 0 -62 45 -62 62 1 8 7 5 16 -7 8 -11 25 -28 37 -37z m-35 -8 c17 -16
32 -34 32 -39 0 -5 -21 -16 -47 -25 -26 -9 -65 -30 -85 -47 -35 -27 -38 -28
-38 -10 0 38 32 101 64 126 17 14 33 25 36 25 3 -1 20 -14 38 -30z m561 1 c10
-6 28 -12 42 -14 13 -2 37 -9 52 -15 16 -7 30 -12 33 -12 16 0 207 -128 243
-162 39 -39 88 -115 79 -124 -9 -9 -132 59 -236 130 -62 42 -118 76 -125 74
-7 -1 -42 8 -80 21 -37 12 -73 20 -80 18 -6 -3 -3 -6 9 -6 32 -1 192 -83 256
-131 31 -24 68 -59 81 -79 28 -44 52 -100 44 -107 -5 -6 -84 33 -128 63 -38
26 -181 163 -169 163 5 0 12 -4 15 -10 3 -5 16 -15 28 -21 21 -11 21 -11 -2
14 -32 36 -122 77 -211 98 l-75 17 70 2 70 3 -79 9 c-66 8 -102 6 -210 -11
-213 -34 -239 -41 -268 -69 -16 -14 -28 -21 -28 -16 0 18 44 51 90 68 25 8
131 32 235 51 105 20 206 40 225 44 48 12 98 13 119 2z m-140 -120 c19 -6 37
-14 40 -19 3 -4 34 -29 67 -55 74 -56 140 -129 161 -177 21 -47 33 -110 21
-110 -37 0 -116 71 -187 166 -32 44 -76 95 -97 114 -26 23 -31 26 -15 8 14
-16 22 -30 19 -33 -3 -3 -11 1 -18 10 -7 8 -17 15 -23 15 -6 0 4 -16 23 -35
18 -19 36 -32 40 -30 10 6 66 -85 84 -138 16 -49 22 -147 8 -147 -4 0 -24 14
-44 30 -26 21 -54 66 -93 143 -56 113 -76 140 -100 131 -10 -4 -9 -14 4 -49
23 -61 35 -69 15 -11 -25 73 -11 64 27 -16 29 -62 34 -84 33 -143 0 -48 -6
-81 -19 -105 l-18 -35 -20 45 c-11 25 -24 79 -30 120 -12 97 -35 180 -48 180
-7 0 -9 -9 -4 -22 3 -13 9 -58 12 -100 5 -66 2 -83 -17 -122 -12 -25 -26 -46
-30 -46 -16 0 -22 84 -11 150 6 36 11 83 11 104 0 57 12 36 21 -36 l7 -63 -2
70 c-3 72 -22 125 -65 174 -12 13 -19 27 -16 29 3 3 33 11 67 17 63 11 130 6
197 -14z m540 -229 c47 -21 44 -32 -10 -32 -36 0 -57 19 -43 41 7 12 5 12 53
-9z m186 -289 l0 -158 -130 -33 c-71 -18 -140 -32 -152 -30 -21 3 -21 5 16 63
21 33 48 80 61 105 14 25 29 51 34 59 6 7 11 18 12 25 1 6 16 42 33 79 32 70
36 71 74 39 35 -31 29 0 -8 38 l-39 40 -61 -128 c-55 -113 -155 -287 -327
-567 -62 -101 -188 -348 -188 -367 0 -7 6 -4 12 7 6 11 14 22 18 25 4 3 38 61
75 129 37 68 85 152 106 185 21 34 59 96 85 139 43 72 49 78 73 72 14 -4 28
-10 31 -14 8 -11 130 -63 181 -76 27 -7 52 -9 60 -4 12 7 12 9 0 9 -8 0 -66
21 -130 46 -112 45 -166 73 -158 81 6 6 331 -114 334 -124 2 -9 -97 -92 -347
-292 -85 -69 -213 -171 -283 -228 -71 -57 -140 -106 -153 -109 -26 -7 -25 -7
-152 86 -57 42 -102 100 -102 132 0 21 22 39 35 28 7 -6 11 -1 13 16 5 62 39
77 65 28 12 -23 14 -22 77 64 35 48 133 157 216 242 84 85 162 166 173 180 37
44 13 -6 -66 -137 -83 -138 -173 -313 -173 -335 0 -8 -3 -18 -7 -22 -4 -3 -7
-14 -8 -24 -1 -9 -14 -55 -28 -102 -56 -188 -43 -186 33 5 103 261 217 473
452 843 36 57 81 136 99 176 l34 72 55 -53 55 -53 0 -157z m-367 231 c29 -20
28 -34 -3 -34 -14 0 -25 4 -25 9 0 5 -3 16 -6 25 -8 20 5 20 34 0z m197 6 c-3
-5 -27 -24 -53 -41 -26 -18 -59 -43 -74 -57 -16 -14 -28 -23 -28 -19 0 4 -13
1 -30 -8 -16 -9 -30 -18 -30 -21 0 -2 14 2 30 11 17 9 30 13 30 9 0 -3 30 15
66 41 98 68 89 48 -11 -24 -47 -34 -85 -64 -85 -66 0 -3 32 16 71 41 39 25 73
44 75 41 3 -3 -11 -15 -30 -27 -41 -25 -46 -34 -13 -25 21 6 21 6 3 -9 -22
-18 -40 -21 -31 -6 12 19 -7 10 -59 -27 -59 -42 -83 -64 -44 -40 33 20 44 22
29 4 -6 -8 -9 -16 -6 -19 3 -3 -14 -21 -37 -40 -65 -53 -115 -102 -93 -90 11
5 31 22 44 36 30 32 52 35 25 4 -13 -15 -7 -13 21 8 62 48 73 50 35 9 -42 -44
-230 -209 -234 -204 -1 2 -23 36 -49 75 -25 39 -69 94 -97 122 l-51 52 25 10
c129 49 538 230 566 251 27 20 45 25 35 9z m-335 -100 c0 -8 -24 -20 -41 -20
-5 0 -9 14 -9 30 0 30 0 30 25 14 14 -9 25 -20 25 -24z m-396 -123 c31 -25 57
-49 57 -52 0 -4 -17 -19 -38 -34 -21 -15 -61 -62 -88 -104 -28 -42 -53 -76
-57 -76 -14 -2 -8 198 8 277 24 123 24 123 45 76 10 -26 38 -59 73 -87z m216
88 c21 -23 22 -27 9 -40 -8 -9 -30 -19 -47 -25 -31 -8 -33 -8 -26 13 3 12 10
26 15 32 5 5 9 17 9 27 0 25 12 23 40 -7z m958 -84 c107 -45 198 -81 203 -81
5 0 9 -4 9 -10 0 -26 -81 -1 -330 102 -74 31 -106 49 -108 62 -5 24 -13 26
226 -73z m-1129 52 c7 -15 21 -33 32 -41 17 -12 27 -42 13 -42 -3 0 -26 19
-50 42 -33 32 -41 45 -33 55 17 19 24 16 38 -14z m580 -12 c11 -7 8 -13 -13
-26 -17 -11 -23 -21 -16 -25 10 -6 -39 -46 -90 -73 -18 -10 39 43 66 61 17 11
17 12 -6 6 -24 -6 -24 -5 5 16 43 34 54 46 23 27 -37 -23 -49 -21 -18 3 29 22
30 23 49 11z m406 -48 c22 -11 58 -26 80 -33 83 -27 109 -41 94 -51 -9 -6 6
-8 44 -8 86 2 91 -12 20 -58 -83 -54 -159 -109 -221 -161 l-53 -44 -52 20
c-29 11 -83 30 -122 42 -38 13 -74 26 -79 30 -4 5 18 13 50 19 33 6 82 17 109
24 l50 12 3 129 c2 121 4 128 20 113 9 -8 35 -24 57 -34z m-895 -123 c0 -4
-23 -10 -50 -13 -28 -3 -55 -9 -60 -12 -14 -9 -12 -79 2 -93 23 -23 37 -14 31
22 -5 29 -2 35 18 42 13 4 27 8 31 9 3 0 10 3 14 8 15 15 41 6 54 -18 12 -22
10 -28 -25 -70 l-37 -46 5 -77 c3 -42 9 -88 12 -102 5 -20 -4 -38 -45 -90 -73
-91 -69 -88 -90 -60 -28 36 -35 78 -17 98 8 9 36 64 61 121 50 115 50 141 -4
141 -30 0 -33 5 -44 71 -5 29 -2 39 18 58 30 29 75 41 104 28 12 -6 22 -13 22
-17z m-291 -145 c5 -3 7 -22 4 -43 -6 -42 45 -174 119 -310 36 -68 46 -101 20
-70 -19 24 -109 212 -132 278 -13 36 -28 71 -34 79 -14 19 -19 59 -10 101 l7
35 9 -32 c4 -18 12 -34 17 -38z m116 -118 c-13 -49 -26 -91 -28 -94 -6 -5 -57
122 -57 140 0 8 19 40 42 72 l41 58 13 -43 c11 -38 10 -53 -11 -133z m295 97
l39 -61 -64 -63 -63 -63 -6 44 c-14 119 -15 139 -6 139 6 0 18 16 27 35 9 20
21 34 26 32 4 -1 26 -30 47 -63z m-197 -16 c-21 -10 -65 -106 -88 -193 -6 -22
-9 -25 -12 -12 -3 9 9 62 27 117 31 100 31 100 63 99 30 0 31 -1 10 -11z m913
-60 c4 -6 -3 -19 -16 -30 -32 -26 -41 -22 -24 12 16 32 28 37 40 18z m-1153
-396 c11 2 24 -6 31 -17 6 -11 19 -32 29 -47 10 -16 16 -28 12 -28 -6 0 -165
131 -165 136 0 2 17 -8 37 -22 20 -13 45 -23 56 -22z"/>
<path d="M1930 2381 c-47 -10 -134 -33 -195 -51 -60 -18 -126 -35 -145 -38
-19 -2 -39 -8 -45 -12 -16 -12 -164 -60 -207 -66 -21 -4 -41 -11 -44 -16 -4
-6 1 -8 12 -5 11 4 49 13 85 21 36 8 157 42 270 76 112 34 254 72 314 85 61
13 94 24 75 24 -19 0 -73 -9 -120 -18z"/>
<path d="M1371 2289 c-46 -10 -96 -26 -110 -35 -36 -23 -71 -56 -71 -66 0 -5
14 4 31 20 26 25 119 61 196 77 29 6 69 24 53 24 -8 -1 -53 -9 -99 -20z"/>
<path d="M1695 2735 c-95 -20 -225 -57 -225 -62 0 -3 25 -3 55 0 46 5 55 3 60
-12 9 -30 59 -70 95 -76 l35 -6 -35 16 c-37 17 -90 63 -90 78 0 5 14 -3 31
-17 44 -38 77 -53 129 -60 49 -7 39 0 -41 29 -54 19 -105 58 -96 72 4 6 35 16
70 23 35 6 70 16 78 21 18 11 8 10 -66 -6z"/>
<path d="M1925 2240 l-70 -6 65 -2 c36 -1 76 -5 90 -7 21 -5 22 -4 5 3 -20 9
-20 9 0 14 20 6 20 6 0 5 -11 0 -51 -3 -90 -7z"/>
<path d="M1871 2216 c2 -2 33 -6 69 -9 38 -3 57 -1 45 3 -19 8 -123 14 -114 6z"/>
<path d="M1553 2175 c-29 -13 -77 -42 -107 -65 -31 -23 -75 -48 -98 -55 -35
-11 -40 -14 -24 -21 11 -4 31 -20 45 -35 14 -15 37 -30 51 -34 l25 -6 -26 15
c-15 9 -29 24 -32 35 -6 26 31 33 81 15 48 -17 166 -19 156 -2 -5 8 -2 9 10 5
25 -10 72 3 54 14 -10 7 -8 9 7 9 18 1 17 2 -4 11 -23 9 -23 10 -6 29 19 21
41 28 30 10 -10 -16 18 -22 46 -10 21 9 20 9 -11 4 -23 -3 -30 -2 -21 4 11 8
11 10 0 14 -9 3 -2 11 19 22 17 9 32 19 32 22 0 7 -62 -26 -84 -45 -16 -13
-18 -14 -14 -1 6 22 98 70 128 68 14 -1 48 1 75 5 36 6 72 3 123 -8 41 -9 76
-14 79 -11 3 3 -14 8 -38 12 -27 5 -37 9 -27 13 10 3 -81 7 -200 8 -211 2
-219 2 -269 -22z m82 -46 c18 -57 -75 -111 -136 -79 -34 19 -21 30 26 23 29
-4 50 -1 60 7 19 16 20 41 1 34 -15 -6 -30 11 -22 24 10 17 65 9 71 -9z"/>
<path d="M1420 2025 c0 -2 12 -11 28 -20 l27 -15 -30 5 c-24 4 -26 3 -10 -4
11 -5 34 -9 50 -9 17 0 22 2 13 5 -10 2 -18 8 -18 12 0 4 -11 13 -25 19 -28
13 -35 14 -35 7z"/>
<path d="M1214 1999 c-10 -17 13 -36 27 -22 12 12 4 33 -11 33 -5 0 -12 -5
-16 -11z"/>
<path d="M1842 1975 c8 -9 131 -55 135 -51 5 4 -112 56 -127 56 -8 0 -11 -2
-8 -5z"/>
<path d="M1910 1917 c8 -8 150 -66 150 -61 0 2 -24 15 -54 28 -58 26 -104 42
-96 33z"/>
<path d="M1900 1675 c30 -30 57 -55 59 -55 3 0 -19 25 -49 55 -30 30 -57 55
-59 55 -3 0 19 -25 49 -55z"/>
<path d="M1630 1737 c14 -12 36 -33 50 -47 14 -15 18 -17 10 -5 -26 37 -64 75
-74 75 -6 0 0 -10 14 -23z"/>
<path d="M1651 1756 c2 -2 27 -20 54 -40 l50 -37 -44 41 c-24 22 -48 40 -54
40 -6 0 -8 -2 -6 -4z"/>
<path d="M1569 1695 c16 -30 51 -71 51 -60 0 6 -14 26 -30 45 -17 19 -26 26
-21 15z"/>
<path d="M1760 1617 c0 -7 14 -26 31 -43 l32 -29 -28 43 c-30 45 -35 50 -35
29z"/>
<path d="M1830 1578 c18 -27 35 -46 38 -44 5 6 -32 59 -55 77 -9 8 -2 -7 17
-33z"/>
<path d="M1700 828 c-90 -95 -230 -260 -230 -272 0 -19 40 18 89 83 32 42 97
115 144 164 80 81 117 127 101 127 -3 0 -50 -46 -104 -102z"/>
<path d="M1749 838 c-6 -12 -39 -51 -73 -87 -70 -75 -177 -221 -162 -221 3 0
28 33 55 73 27 40 83 110 125 156 42 45 76 87 76 92 0 15 -9 10 -21 -13z"/>
<path d="M1675 690 c-4 -6 -10 -8 -15 -5 -11 7 -49 -40 -95 -115 -25 -40 -42
-59 -51 -56 -8 3 -26 1 -40 -4 -36 -14 -31 -61 8 -74 23 -8 31 -6 43 10 8 10
12 25 10 33 -5 13 46 106 93 169 45 59 34 26 -18 -54 -27 -44 -50 -83 -50 -89
0 -5 16 17 36 50 20 32 49 78 65 102 17 24 28 43 25 43 -3 0 -8 -5 -11 -10z
m-165 -205 c16 -20 1 -38 -23 -29 -17 6 -22 25 -10 37 10 11 19 8 33 -8z"/>
<path d="M2454 1048 c-26 -18 -49 -41 -50 -50 -2 -14 13 -10 77 22 43 22 79
42 79 45 0 5 -89 -34 -118 -53 -12 -8 -25 -13 -28 -10 -5 6 71 58 85 58 5 0
13 5 16 10 12 19 -13 10 -61 -22z"/>
<path d="M2374 2012 c5 -8 -7 -13 -41 -14 l-48 -1 44 -4 c45 -4 73 8 50 22 -8
5 -10 4 -5 -3z"/>
<path d="M493 1830 c-71 -28 -174 -138 -198 -210 -52 -157 36 -346 202 -433
86 -44 164 -61 224 -48 41 9 45 8 64 -15 11 -13 34 -28 50 -33 26 -7 30 -12
27 -39 -1 -23 4 -35 18 -44 11 -7 20 -17 20 -22 0 -4 22 -34 48 -65 26 -31 78
-94 114 -141 117 -152 156 -190 193 -190 47 0 85 33 85 75 0 29 -22 61 -142
210 -79 97 -153 193 -164 212 -25 41 -41 53 -70 53 -22 0 -34 17 -34 48 0 8
-8 24 -17 34 -15 17 -15 20 9 46 75 80 85 216 25 346 -82 177 -295 279 -454
216z m253 -43 c107 -55 185 -164 206 -289 39 -231 -193 -353 -400 -211 -114
78 -177 189 -177 314 0 89 37 151 115 192 50 26 62 28 130 25 55 -4 89 -12
126 -31z m-373 -319 c15 -35 15 -37 -10 -60 -20 -18 -25 -19 -20 -6 4 11 2 17
-5 15 -29 -6 -37 143 -11 201 l17 37 6 -75 c4 -41 14 -91 23 -112z m167 -209
c0 -3 -9 -14 -20 -24 -19 -17 -21 -17 -59 9 -22 15 -47 36 -57 47 -17 18 -16
20 6 44 l23 24 53 -47 c30 -26 54 -50 54 -53z m91 -55 c17 -8 29 -17 27 -19
-6 -7 -90 13 -101 24 -17 17 38 14 74 -5z m263 -17 c-10 -5 -32 -21 -47 -36
-24 -22 -29 -23 -37 -11 -14 21 -8 32 29 57 27 18 37 20 54 12 20 -11 20 -12
1 -22z m11 -37 c21 -23 18 -28 -15 -32 -13 -2 -25 3 -28 12 -5 13 -3 13 11 1
10 -8 17 -9 17 -3 0 6 -4 14 -10 17 -12 8 -13 25 -2 25 5 0 17 -9 27 -20z m33
-53 c-15 -12 -32 -33 -37 -47 -9 -23 -10 -23 -10 -4 -1 27 35 74 57 74 13 0
10 -6 -10 -23z m54 -14 c-8 -3 -29 -19 -48 -35 -45 -40 -44 -16 2 30 28 28 37
32 47 22 9 -10 9 -14 -1 -17z m153 -180 c72 -86 131 -160 133 -164 2 -3 -12
-16 -31 -27 l-34 -20 -117 142 c-64 77 -121 148 -126 156 -9 13 -11 13 -19 0
-13 -19 -25 -6 -14 15 9 15 61 55 73 55 4 0 64 -71 135 -157z m165 -226 c0
-16 -12 -27 -39 -39 -45 -22 -51 -22 -51 -4 0 18 68 78 81 71 5 -4 9 -16 9
-28z"/>
<path d="M502 1774 c-225 -112 -66 -499 214 -522 181 -14 273 150 188 337 -39
86 -85 135 -166 175 -91 46 -158 49 -236 10z m205 -55 c136 -65 217 -244 165
-362 -28 -62 -59 -81 -137 -80 -158 1 -300 137 -313 298 -7 90 33 159 103 178
39 10 121 -5 182 -34z"/>
<path d="M550 1691 c-14 -27 -13 -58 3 -64 9 -3 12 5 9 30 -3 23 0 38 9 44 10
6 10 9 2 9 -7 0 -17 -9 -23 -19z"/>
<path d="M990 1025 c0 -7 134 -187 194 -260 13 -16 28 -27 32 -23 4 5 0 16 -8
25 -8 10 -57 70 -108 133 -115 142 -110 136 -110 125z"/>
<path d="M1190 1727 c-38 -10 -45 -16 -46 -37 -1 -18 0 -19 3 -4 3 16 18 24
66 36 34 9 53 16 42 16 -11 0 -40 -5 -65 -11z"/>
<path d="M1130 1218 c-30 -35 -60 -71 -68 -80 -13 -15 -11 -22 12 -63 29 -49
33 -51 61 -32 17 13 16 14 -14 20 -27 6 -31 11 -31 37 0 18 11 45 25 64 14 18
25 38 25 44 0 6 12 24 26 41 14 17 24 31 21 31 -2 0 -28 -28 -57 -62z"/>
<path d="M1137 1028 c-14 -7 -10 -17 30 -68 48 -62 66 -72 40 -23 -54 102 -53
101 -70 91z"/>
</g>
</svg>
